<svg xmlns="http://www.w3.org/2000/svg" xmlns:xlink="http://www.w3.org/1999/xlink" viewBox="0,0,256,256" width="48px" height="48px" fill-rule="nonzero"><defs><linearGradient x1="12.727" y1="33.727" x2="4.186" y2="25.186" gradientUnits="userSpaceOnUse" id="color-1"><stop offset="0.365" stop-color="#d8e0e5"></stop><stop offset="0.699" stop-color="#e7ecef"></stop><stop offset="0.819" stop-color="#e0e6ea"></stop><stop offset="0.905" stop-color="#dfe5e8"></stop><stop offset="0.974" stop-color="#e0e5e8"></stop><stop offset="1" stop-color="#e1e5e8"></stop></linearGradient><linearGradient x1="1.359" y1="25.641" x2="12.357" y2="14.643" gradientUnits="userSpaceOnUse" id="color-2"><stop offset="0" stop-color="#e3e9ec"></stop><stop offset="1" stop-color="#e6eaec"></stop></linearGradient><linearGradient x1="35.273" y1="33.727" x2="43.814" y2="25.186" gradientUnits="userSpaceOnUse" id="color-3"><stop offset="0.365" stop-color="#d8e0e5"></stop><stop offset="0.699" stop-color="#e7ecef"></stop><stop offset="0.819" stop-color="#e0e6ea"></stop><stop offset="0.905" stop-color="#dfe5e8"></stop><stop offset="0.974" stop-color="#e0e5e8"></stop><stop offset="1" stop-color="#e1e5e8"></stop></linearGradient><linearGradient x1="46.641" y1="25.641" x2="35.643" y2="14.643" gradientUnits="userSpaceOnUse" id="color-4"><stop offset="0" stop-color="#e3e9ec"></stop><stop offset="1" stop-color="#e6eaec"></stop></linearGradient></defs><g fill="none" fill-rule="nonzero" stroke="none" stroke-width="1" stroke-linecap="butt" stroke-linejoin="miter" stroke-miterlimit="10" stroke-dasharray="" stroke-dashoffset="0" font-family="none" font-weight="none" font-size="none" text-anchor="none" style="mix-blend-mode: normal"><g transform="scale(5.33333,5.33333)"><path d="M0.29,24.701l9.509,9.509c0.387,0.387 1.014,0.387 1.401,0l2.009,-2.009c0.387,-0.387 0.387,-1.014 0,-1.401l-9.508,-9.51c-0.387,-0.387 -1.014,-0.387 -1.401,0l-2.01,2.009c-0.387,0.387 -0.387,1.015 0,1.402z" fill="url(#color-1)"></path><path d="M3.701,26.71l9.509,-9.509c0.387,-0.387 0.387,-1.014 0,-1.401l-2.009,-2.009c-0.387,-0.387 -1.014,-0.387 -1.401,0l-9.51,9.508c-0.387,0.387 -0.387,1.014 0,1.401l2.009,2.009c0.387,0.388 1.015,0.388 1.402,0.001z" fill="url(#color-2)"></path><path d="M47.71,24.701l-9.509,9.509c-0.387,0.387 -1.014,0.387 -1.401,0l-2.009,-2.009c-0.387,-0.387 -0.387,-1.014 0,-1.401l9.509,-9.509c0.387,-0.387 1.014,-0.387 1.401,0l2.009,2.009c0.387,0.386 0.387,1.014 0,1.401z" fill="url(#color-3)"></path><path d="M44.299,26.71l-9.509,-9.509c-0.387,-0.387 -0.387,-1.014 0,-1.401l2.009,-2.009c0.387,-0.387 1.014,-0.387 1.401,0l9.509,9.509c0.387,0.387 0.387,1.014 0,1.401l-2.009,2.009c-0.386,0.387 -1.014,0.387 -1.401,0z" fill="url(#color-4)"></path><path d="M30.25,2.5h-3.61c-0.473,0 -0.882,0.332 -0.979,0.795l-8.644,41.301c-0.098,0.466 0.258,0.904 0.734,0.904h3.61c0.473,0 0.882,-0.332 0.979,-0.795l8.644,-41.301c0.097,-0.466 -0.258,-0.904 -0.734,-0.904z" fill="#eef0f3"></path></g></g></svg>